<?xml version="1.0" encoding="UTF-8"?><svg xmlns="http://www.w3.org/2000/svg" xmlns:xlink="http://www.w3.org/1999/xlink" fill-opacity="1" color-rendering="auto" color-interpolation="auto" text-rendering="auto" stroke="black" stroke-linecap="square" width="572" stroke-miterlimit="10" shape-rendering="auto" stroke-opacity="1" fill="black" stroke-dasharray="none" font-weight="normal" stroke-width="1" height="371" font-family="'Dialog'" font-style="normal" stroke-linejoin="miter" font-size="12px" stroke-dashoffset="0" image-rendering="auto">
  <!--Generated by ySVG 2.6-->
  <defs id="genericDefs"/>
  <g>
    <defs id="defs1">
      <clipPath clipPathUnits="userSpaceOnUse" id="clipPath1">
        <path d="M0 0 L572 0 L572 371 L0 371 L0 0 Z"/>
      </clipPath>
      <clipPath clipPathUnits="userSpaceOnUse" id="clipPath2">
        <path d="M609 361 L1181 361 L1181 732 L609 732 L609 361 Z"/>
      </clipPath>
    </defs>
    <g fill="white" text-rendering="geometricPrecision" shape-rendering="geometricPrecision" transform="translate(-609,-361)" stroke="white">
      <rect x="609" width="572" height="371" y="361" clip-path="url(#clipPath2)" stroke="none"/>
    </g>
    <g fill="aqua" text-rendering="geometricPrecision" shape-rendering="geometricPrecision" transform="matrix(1,0,0,1,-609,-361)" stroke="aqua">
      <rect x="803.5" width="114" height="30" y="483.5" clip-path="url(#clipPath2)" stroke="none"/>
    </g>
    <g text-rendering="geometricPrecision" stroke-miterlimit="1.45" shape-rendering="geometricPrecision" transform="matrix(1,0,0,1,-609,-361)" stroke-linecap="butt">
      <rect fill="none" x="803.5" width="114" height="30" y="483.5" clip-path="url(#clipPath2)"/>
      <text x="821.7578" xml:space="preserve" y="502.958" clip-path="url(#clipPath2)" font-family="sans-serif" stroke="none">nixos-artifacts</text>
    </g>
    <g fill="rgb(204,255,255)" text-rendering="geometricPrecision" shape-rendering="geometricPrecision" transform="matrix(1,0,0,1,-609,-361)" stroke="rgb(204,255,255)">
      <rect x="786" width="149" height="30" y="585" clip-path="url(#clipPath2)" stroke="none"/>
    </g>
    <g text-rendering="geometricPrecision" stroke-miterlimit="1.45" shape-rendering="geometricPrecision" transform="matrix(1,0,0,1,-609,-361)" stroke-linecap="butt">
      <rect fill="none" x="786" width="149" height="30" y="585" clip-path="url(#clipPath2)"/>
      <text x="801.9816" xml:space="preserve" y="604.458" clip-path="url(#clipPath2)" font-family="sans-serif" stroke="none">nixos-artifacts-agenix</text>
    </g>
    <g fill="rgb(153,204,0)" text-rendering="geometricPrecision" shape-rendering="geometricPrecision" transform="matrix(1,0,0,1,-609,-361)" stroke="rgb(153,204,0)">
      <rect x="806.5" width="108" height="30" y="686.5" clip-path="url(#clipPath2)" stroke="none"/>
    </g>
    <g text-rendering="geometricPrecision" stroke-miterlimit="1.45" shape-rendering="geometricPrecision" transform="matrix(1,0,0,1,-609,-361)" stroke-linecap="butt">
      <rect fill="none" x="806.5" width="108" height="30" y="686.5" clip-path="url(#clipPath2)"/>
      <text x="842.5179" xml:space="preserve" y="705.958" clip-path="url(#clipPath2)" font-family="sans-serif" stroke="none">agenix</text>
    </g>
    <g fill="rgb(255,204,0)" text-rendering="geometricPrecision" shape-rendering="geometricPrecision" transform="matrix(1,0,0,1,-609,-361)" stroke="rgb(255,204,0)">
      <rect x="624" width="156" height="30" y="382" clip-path="url(#clipPath2)" stroke="none"/>
    </g>
    <g text-rendering="geometricPrecision" stroke-miterlimit="1.45" shape-rendering="geometricPrecision" transform="matrix(1,0,0,1,-609,-361)" stroke-linecap="butt">
      <rect fill="none" x="624" width="156" height="30" y="382" clip-path="url(#clipPath2)"/>
      <text x="649.9436" xml:space="preserve" y="401.458" clip-path="url(#clipPath2)" font-family="sans-serif" stroke="none">nixosConfiguration</text>
    </g>
    <g fill="aqua" text-rendering="geometricPrecision" shape-rendering="geometricPrecision" transform="matrix(1,0,0,1,-609,-361)" stroke="aqua">
      <path d="M970 397 L981.4 382 L1072.6 382 L1084 397 L1072.6 412 L981.4 412 Z" fill-rule="evenodd" clip-path="url(#clipPath2)" stroke="none"/>
    </g>
    <g text-rendering="geometricPrecision" stroke-miterlimit="1.45" shape-rendering="geometricPrecision" transform="matrix(1,0,0,1,-609,-361)" stroke-linecap="butt">
      <path fill="none" d="M970 397 L981.4 382 L1072.6 382 L1084 397 L1072.6 412 L981.4 412 Z" fill-rule="evenodd" clip-path="url(#clipPath2)"/>
      <text x="996.5558" xml:space="preserve" y="401.458" clip-path="url(#clipPath2)" font-family="sans-serif" stroke="none">artifacts-cli</text>
      <path fill="none" d="M860.5 585 L860.5 521.5" clip-path="url(#clipPath2)"/>
      <path d="M860.5 513.5 L855.5 525.5 L860.5 522.5 L865.5 525.5 Z" clip-path="url(#clipPath2)" stroke="none"/>
      <text x="867.2378" xml:space="preserve" y="559.708" clip-path="url(#clipPath2)" font-family="sans-serif" stroke="none">implements</text>
      <path fill="none" d="M860.5 615 L860.5 678.5" clip-path="url(#clipPath2)"/>
      <path d="M860.5 686.5 L865.5 674.5 L860.5 677.5 L855.5 674.5 Z" clip-path="url(#clipPath2)" stroke="none"/>
      <text x="795.6338" xml:space="preserve" y="655.208" clip-path="url(#clipPath2)" font-family="sans-serif" stroke="none">configures</text>
      <path fill="none" d="M702 412 L702 498.5 L795.5 498.5" clip-path="url(#clipPath2)"/>
      <path d="M803.5 498.5 L791.5 493.5 L794.5 498.5 L791.5 503.5 Z" clip-path="url(#clipPath2)" stroke="none"/>
      <path fill="none" d="M702 412 L702 600 L778 600" clip-path="url(#clipPath2)"/>
      <path d="M786 600 L774 595 L777 600 L774 605 Z" clip-path="url(#clipPath2)" stroke="none"/>
      <path fill="none" d="M702 412 L702 701.5 L798.5 701.5" clip-path="url(#clipPath2)"/>
      <path d="M806.5 701.5 L794.5 696.5 L797.5 701.5 L794.5 706.5 Z" clip-path="url(#clipPath2)" stroke="none"/>
      <text x="651.8378" xml:space="preserve" y="434.1332" clip-path="url(#clipPath2)" font-family="sans-serif" stroke="none">imports</text>
      <path fill="none" d="M969.9901 397 L788 397" clip-path="url(#clipPath2)"/>
      <path d="M780 397 L792 402 L789 397 L792 392 Z" clip-path="url(#clipPath2)" stroke="none"/>
      <text x="832.0873" xml:space="preserve" y="389.458" clip-path="url(#clipPath2)" font-family="sans-serif" stroke="none">read artifact definitions</text>
      <path fill="none" d="M1027 412.0168 L1027 600 L943 600" clip-path="url(#clipPath2)"/>
      <path d="M935 600 L947 605 L944 600 L947 595 Z" clip-path="url(#clipPath2)" stroke="none"/>
      <text x="1036.8076" xml:space="preserve" y="437.321" clip-path="url(#clipPath2)" font-family="sans-serif" stroke="none">use serialization scripts</text>
    </g>
  </g>
</svg>
